<svg width="48" height="48" viewBox="0 0 48 48" fill="none" xmlns="http://www.w3.org/2000/svg">
<rect opacity="0.1" width="48" height="48" rx="14" fill="#4A3AFF"/>
<path d="M30.4996 37H17.4996C15.3455 37 13.5996 35.2541 13.5996 33.1V14.9C13.5996 12.7459 15.3455 11 17.4996 11H26.5996L34.3996 18.8V33.1C34.3996 35.2541 32.6537 37 30.4996 37Z" fill="#4A3AFF"/>
<path d="M26.5996 16.2V11L34.3996 18.8H29.1996C27.7631 18.8 26.5996 17.6365 26.5996 16.2Z" fill="#D5D5D5" fill-opacity="0.5"/>
<path d="M18.2886 30.5374C18.0213 30.5374 17.7529 30.4449 17.537 30.2553C17.0618 29.8395 17.0139 29.1176 17.4285 28.6436L21.4262 24.0748C21.6455 23.8212 21.9357 23.6956 22.3 23.6841C22.6347 23.6887 22.9499 23.8383 23.1647 24.0942L25.1247 26.4472L28.8186 21.828C29.215 21.3369 29.9312 21.2546 30.4246 21.6499C30.9169 22.0451 30.9968 22.7635 30.6028 23.2558L26.0339 28.9669C25.8192 29.2342 25.4959 29.3918 25.1533 29.3952C24.7958 29.4466 24.4839 29.2467 24.2646 28.9852L22.2658 26.5854L19.1486 30.1468C18.9225 30.4061 18.6061 30.5374 18.2886 30.5374Z" fill="#EDECFF"/>
</svg>
