<svg xmlns="http://www.w3.org/2000/svg" width="100%" height="100%" viewBox="0 0 100 100" fill="none">
  <path fill-rule="evenodd" clip-rule="evenodd" d="M30.5005 78.5C15.9279 55.3334 1.0761 29.6536 0.34375 0H26.2483C30.7184 16.7575 39.1366 40.6042 54.0005 73C74.4512 117.572 73.6776 160.712 67.0559 192H42.3314C55.436 164.7 63.1014 130.327 30.5005 78.5Z" fill="#FFB400"/>
  <path fill-rule="evenodd" clip-rule="evenodd" d="M36.1853 79C21.5309 55.7033 6.5941 29.8651 6.01758 0H31.8004C36.2357 16.782 44.6729 40.7807 59.6853 73.5C80.0274 117.835 79.37 160.753 72.8458 192H48.2552C61.2128 164.781 68.5875 130.511 36.1853 79Z" fill="#00389A"/>
  <path fill-rule="evenodd" clip-rule="evenodd" d="M177 0H13.7756C12.2802 27.4658 21.8511 49.7127 36.185 72.5C68.8398 124.413 58.83 162.309 44.1499 192H177V0Z" fill="#00489A"/>
</svg>