<svg width="48" height="48" viewBox="0 0 48 48" fill="none" xmlns="http://www.w3.org/2000/svg">
<rect opacity="0.1" width="48" height="48" rx="14" fill="#4A3AFF"/>
<path opacity="0.3" d="M34.1111 25.4442C34.1111 27.7297 33.4334 29.9638 32.1636 31.8641C30.8939 33.7645 29.0892 35.2456 26.9777 36.1202C24.8662 36.9948 22.5427 37.2236 20.3012 36.7777C18.0596 36.3319 16.0006 35.2313 14.3845 33.6152C12.7685 31.9992 11.6679 29.9402 11.222 27.6986C10.7762 25.457 11.005 23.1336 11.8796 21.0221C12.7542 18.9106 14.2353 17.1059 16.1356 15.8361C18.0359 14.5664 20.2701 13.8887 22.5556 13.8887V25.4442H34.1111Z" fill="#4A3AFF"/>
<path d="M25.4442 11.0002C26.9617 11.0002 28.4644 11.2991 29.8663 11.8798C31.2683 12.4606 32.5422 13.3117 33.6152 14.3848C34.6883 15.4578 35.5394 16.7317 36.1202 18.1337C36.7009 19.5356 36.9998 21.0383 36.9998 22.5558L25.4442 22.5558L25.4442 11.0002Z" fill="#4A3AFF"/>
</svg>
